<?xml version="1.0" encoding="utf-8" ?><svg xmlns="http://www.w3.org/2000/svg" xmlns:xlink="http://www.w3.org/1999/xlink" width="392" height="440" viewBox="0 0 392 440"><path fill="white" d="M219.332 20.7887C227.241 20.5842 235.863 20.8247 243.844 20.812L302.563 20.6851C314.413 20.5234 326.264 20.4539 338.115 20.4767C341.189 20.4662 344.935 20.523 347.895 20.4399C359.381 20.1175 371.674 21.2028 370.966 35.869C370.737 40.6025 369.89 45.1326 369.176 49.8049C364.623 80.5795 350.397 109.107 328.555 131.26C321.428 138.498 316.627 141.909 308.305 147.385C283.469 163.918 254.331 172.807 224.496 172.952L202.466 172.9C198.816 172.881 193.625 173.001 190.102 172.756C171.994 173.704 156.922 171.773 138.533 175.195C115.802 179.34 94.3801 188.826 76.0326 202.871C71.5395 206.1 67.3145 210.393 63.3622 214.221C55.9673 220.991 50.7069 227.944 45.0614 236.077C38.6947 245.247 35.0544 251.741 30.6303 261.853C29.7025 254.178 30.2817 247.174 30.3092 239.422L30.5104 196.398L30.4098 144.306L30.4278 127.937C30.4554 124.678 30.4418 119.77 30.9836 116.662C30.9517 112.258 33.2772 99.6968 34.6553 95.3444C36.1238 90.6287 39.6844 81.9494 42.1046 77.6476C42.7121 76.4238 43.3679 75.3109 44.0519 74.1302C47.0223 68.8334 52.8364 60.5102 57.1641 56.0831C58.096 54.7877 59.3878 53.5132 60.5105 52.3864C72.7222 40.161 88.2514 30.2669 104.873 25.2732C123.338 19.7257 144.448 20.5593 163.61 20.5703L219.332 20.7887Z"/><path fill="white" d="M219.332 20.7887C227.241 20.5842 235.863 20.8247 243.844 20.812L302.563 20.6851C314.413 20.5234 326.264 20.4539 338.115 20.4767C341.189 20.4662 344.935 20.523 347.895 20.4399C359.381 20.1175 371.674 21.2028 370.966 35.869C370.737 40.6025 369.89 45.1326 369.176 49.8049C364.623 80.5795 350.397 109.107 328.555 131.26C321.428 138.498 316.627 141.909 308.305 147.385C283.469 163.918 254.331 172.807 224.496 172.952L202.466 172.9C198.816 172.881 193.625 173.001 190.102 172.756C192.23 172.078 197.334 172.74 199.961 172.426C200.166 171.859 199.139 171.565 198.696 170.241C198.889 169.679 199.201 169.415 199.732 169.128C202.166 167.809 199.691 166.277 201.576 165.086C201.739 164.073 200.504 163.981 200.681 163.133C201.089 161.18 202.103 158.897 202.566 156.965C202.926 155.462 202.476 153.254 202.88 151.658C203.936 147.494 205.937 142.532 206.987 138.521C207.242 135.204 206.736 131.845 206.672 128.527C206.629 126.323 207.101 124.112 207.4 121.934C207.961 117.843 209.043 114.057 210.442 110.183C210.825 109.122 212.196 106.093 212.324 105.149C213.024 99.9699 211.759 94.5797 213.109 89.3968C213.525 87.7852 215.226 84.684 215.314 83.15C215.836 73.9808 215.561 64.6945 215.299 55.5161C215.219 52.7412 217.676 50.2722 218.097 47.4927C218.359 45.6323 217.198 42.8162 218.84 41.199C220.736 39.5496 219.93 38.5888 220.112 36.3735L222.143 35.2914C222.313 34.8149 221.503 33.0088 221.266 32.3698C221.822 32.0911 222.346 31.8864 222.92 31.6537L223.109 30.6287C223.523 30.1796 223.837 29.9431 223.948 29.3492C223.427 29.0308 223.285 28.9496 222.804 28.541L222.855 28.0756C223.43 28.0329 223.484 28.0559 224.017 27.8579C223.751 27.2159 223.955 27.4948 223.284 27.079C223.864 26.7699 224.284 26.5902 224.767 26.1349C223.596 23.5393 221.059 24.3049 220.58 22.5747C222.146 22.1271 225.08 22.1468 225.723 21.8684C225.4 20.9636 220.818 21.9016 219.332 20.7887Z"/><path fill="white" d="M57.1641 56.0831C56.9261 58.4498 44.83 71.623 45.1098 74.0769C46.6355 73.5303 47.709 69.9707 48.8759 69.3462C49.1885 69.7508 49.173 70.0665 49.238 70.5757L50.0177 70.7119C49.9616 71.5348 50.1409 71.258 49.7028 71.7318L49.5249 71.6744C48.989 71.5071 48.8405 71.4088 48.3018 71.5708C48.4312 72.1888 48.2862 71.9351 48.7467 72.3606L49.5727 72.1026L49.6903 72.3752C48.6874 74.4939 48.3587 73.9438 49.1474 75.9879C49.5749 77.0958 49.9066 78.1406 50.6359 79.1245C50.9494 78.9344 51.2578 78.7898 51.603 78.6663C52.0086 77.7438 51.9615 77.3772 52.0071 76.3682C52.9988 76.2911 52.7805 77.1203 53.6654 76.7537C53.739 76.0469 53.7549 75.4807 54.0013 74.8114L54.3233 74.6933C55.3011 75.8092 54.3857 76.0892 55.4278 77.1945C56.1418 76.3664 55.531 75.4614 56.2387 74.6557C57.0178 75.2785 56.9006 75.6322 56.5867 76.5285L56.8563 76.7096C58.4362 75.927 57.7763 76.4416 58.783 75.0019C59.6671 74.8771 60.0174 75.7956 60.5539 75.5306C60.8533 75.3905 62.3504 75.0294 62.5723 75.3588C64.5102 78.2347 66.497 82.8041 67.1503 86.2225C67.4523 87.8028 65.5842 88.0462 66.8602 91.0625L67.0282 91.1387L67.4252 90.5427C67.4291 91.3847 67.1971 91.6191 66.7579 92.3844C66.7568 92.3729 67.7877 96.6077 67.7927 96.6217L67.6078 96.9219L67.2853 96.8646C67.1108 95.8961 66.962 95.0213 66.7155 94.0643C66.4879 94.6139 67.0723 100.376 66.9552 101.483C66.8634 102.352 67.6401 103.297 67.0428 104.166C69.0199 113.065 71.2258 123.938 70.0673 133.004C69.7585 135.421 72.2965 146.879 73.2403 149.076L74.0157 148.705C74.2527 149.71 74.432 150.439 74.5255 151.482C74.5792 152.08 74.409 153.251 74.5069 153.665L74.9305 153.889L75.0934 152.794C76.3583 153.714 75.5792 157.815 75.4166 159.292C75.4433 158.934 75.6211 156.837 75.5904 156.626C75.1413 159.597 75.3664 160.885 75.7052 163.833C75.8393 162.763 75.6863 160.934 75.8932 160.276C76.2815 160.907 76.1044 163.85 76.1686 164.872C76.3362 167.539 77.5243 171.01 77.4307 173.576C77.2754 177.832 76.0411 182.01 75.5394 186.472C75.3389 185.54 75.6023 184.271 75.2211 183.993C74.9091 185.271 75.2838 194.71 75.2544 197.004C76.7782 197.555 77.2265 197.917 77.1548 199.598C76.4018 200.56 75.6031 201.036 75.2899 202.021C75.5517 202.682 75.3605 202.374 76.0326 202.871C71.5395 206.1 67.3145 210.393 63.3622 214.221C55.9673 220.991 50.7069 227.944 45.0614 236.077C38.6947 245.247 35.0544 251.741 30.6303 261.853C29.7025 254.178 30.2817 247.174 30.3092 239.422L30.5104 196.398L30.4098 144.306L30.4278 127.937C30.4554 124.678 30.4418 119.77 30.9836 116.662C30.9517 112.258 33.2772 99.6968 34.6553 95.3444C36.1238 90.6287 39.6844 81.9494 42.1046 77.6476C42.7121 76.4238 43.3679 75.3109 44.0519 74.1302C47.0223 68.8334 52.8364 60.5102 57.1641 56.0831Z"/><path fill="white" d="M240.954 209.879C245.607 209.792 251.622 209.113 255.893 211.196C259.678 213.043 262.456 216.88 263.757 220.808C267.12 230.959 265.829 249.829 262.812 259.998C261.08 265.834 258.356 271.568 255.607 276.994C251.287 285.518 244.134 294.453 237.139 300.92C223.052 313.947 215.527 316.198 196.952 319.561C192.06 320.447 187.159 321.519 182.289 322.526C178.23 323.367 173.744 323.951 169.833 325.269C156.617 329.722 146.293 344.199 141.619 356.908C139.447 362.812 138.311 368.867 135.43 374.54C130.334 384.576 122.403 395.256 113.227 401.907C111.195 403.38 108.853 404.543 106.652 405.746C104.01 407.191 101.369 408.527 98.4869 409.444C94.3039 410.777 74.8256 410.693 70.3573 409.722C66.5807 408.901 63.2491 407.25 59.8378 405.507C54.7223 402.96 50.022 399.652 45.8966 395.697C31.48 381.611 29.7046 366.849 29.4338 347.653C29.3654 342.807 29.9448 329.671 30.6673 324.864C34.4087 299.972 49.6008 273.065 66.8691 255.036C79.4954 241.854 95.3352 230.344 112.181 223.444C115.423 222.117 119.356 220.018 122.671 218.956C128.765 217.005 135.221 215.627 141.459 214.245C148.604 212.662 156.722 210.849 164.018 210.383C173.064 209.804 182.862 210.004 191.963 210.003C208.294 210.049 224.624 210.008 240.954 209.879Z"/></svg>