<svg width="40" height="40" viewBox="0 0 40 40" fill="none" xmlns="http://www.w3.org/2000/svg"><path d="M20 2C10.0589 2 2 10.0589 2 20C2 29.9411 10.0589 38 20 38C29.9411 38 38 29.9411 38 20C38 10.0589 29.9411 2 20 2ZM20 34C12.268 34 6 27.732 6 20C6 12.268 12.268 6 20 6C27.732 6 34 12.268 34 20C34 27.732 27.732 34 20 34Z" fill="url(#paint0_linear)"/><path d="M28 14L20 22L12 14" stroke="url(#paint1_linear)" stroke-width="4" stroke-linecap="round" stroke-linejoin="round"/><defs><linearGradient id="paint0_linear" x1="2" y1="2" x2="38" y2="38" gradientUnits="userSpaceOnUse"><stop stop-color="#a855f7"/><stop offset="1" stop-color="#ff6b6b"/></linearGradient><linearGradient id="paint1_linear" x1="12" y1="14" x2="28" y2="22" gradientUnits="userSpaceOnUse"><stop stop-color="#a855f7"/><stop offset="1" stop-color="#ff6b6b"/></linearGradient></defs></svg>